<svg width="225" height="225" viewBox="0 0 225 225" fill="none" xmlns="http://www.w3.org/2000/svg">
<circle cx="112.5" cy="112.5" r="112.5" fill="#C5E5C6"/>
<path opacity="0.8" d="M115.141 102.968L55.2247 163.295C53.0203 165.516 53.0203 169.106 55.2247 171.303C57.429 173.5 60.9935 173.523 63.1744 171.303L76.5412 157.839H92.4876C104.143 157.839 115.446 154.437 125.084 148.154C127.687 146.454 126.374 142.721 123.255 142.721C122.059 142.721 121.097 141.753 121.097 140.548C121.097 139.58 121.73 138.753 122.622 138.47L141.617 132.73C142.203 132.541 142.742 132.234 143.188 131.785L148.441 126.494C150.809 124.108 149.121 120.045 145.791 120.045H138.24C137.044 120.045 136.082 119.077 136.082 117.872C136.082 116.904 136.715 116.077 137.607 115.794L163.871 107.857C164.809 107.574 165.606 106.936 166.052 106.038C168.585 101.078 169.898 95.5269 169.898 89.8343C169.898 80.1497 166.076 70.8667 159.275 64.0166L157.985 62.7175C151.208 55.891 141.992 52.0408 132.377 52.0408C122.762 52.0408 113.546 55.891 106.746 62.7411L82.4273 87.236C71.1711 98.574 64.8394 113.951 64.8394 129.99V143.052L109.302 98.2906C110.756 96.8261 113.148 96.8261 114.602 98.2906C115.868 99.5661 116.032 101.503 115.117 102.968H115.141Z" fill="black"/>
</svg>
